<mxfile host="app.diagrams.net" modified="2021-02-25T16:22:02.386Z" agent="5.0 (Macintosh; Intel Mac OS X 10_16_0) AppleWebKit/537.36 (KHTML, like Gecko) Chrome/81.0.4044.129 Safari/537.36" etag="AVp_Yd8ZZYflbOUyLV54" version="14.4.2" type="github" pages="2">
  <diagram id="eII8MDXBEr4Iau-ZRcRC" name="Page-1">
    <mxGraphModel dx="1351" dy="923" grid="1" gridSize="23" guides="1" tooltips="1" connect="1" arrows="1" fold="1" page="1" pageScale="1" pageWidth="1169" pageHeight="827" background="#ffffff" math="0" shadow="1">
      <root>
        <mxCell id="0" />
        <mxCell id="1" parent="0" />
        <mxCell id="7eaByzuk_8OHsZemyHuM-4" value="" style="edgeStyle=orthogonalEdgeStyle;rounded=0;orthogonalLoop=1;jettySize=auto;html=1;" parent="1" source="7eaByzuk_8OHsZemyHuM-1" target="7eaByzuk_8OHsZemyHuM-3" edge="1">
          <mxGeometry relative="1" as="geometry" />
        </mxCell>
        <mxCell id="7eaByzuk_8OHsZemyHuM-1" value="输入" style="ellipse;whiteSpace=wrap;html=1;" parent="1" vertex="1">
          <mxGeometry x="207" y="92" width="120" height="80" as="geometry" />
        </mxCell>
        <mxCell id="7eaByzuk_8OHsZemyHuM-6" value="" style="edgeStyle=orthogonalEdgeStyle;rounded=0;orthogonalLoop=1;jettySize=auto;html=1;" parent="1" source="7eaByzuk_8OHsZemyHuM-3" target="7eaByzuk_8OHsZemyHuM-5" edge="1">
          <mxGeometry relative="1" as="geometry" />
        </mxCell>
        <mxCell id="7eaByzuk_8OHsZemyHuM-3" value="数据获取" style="ellipse;whiteSpace=wrap;html=1;" parent="1" vertex="1">
          <mxGeometry x="407" y="92" width="120" height="80" as="geometry" />
        </mxCell>
        <mxCell id="7eaByzuk_8OHsZemyHuM-8" value="" style="edgeStyle=orthogonalEdgeStyle;rounded=0;orthogonalLoop=1;jettySize=auto;html=1;" parent="1" source="7eaByzuk_8OHsZemyHuM-5" target="7eaByzuk_8OHsZemyHuM-7" edge="1">
          <mxGeometry relative="1" as="geometry" />
        </mxCell>
        <mxCell id="7eaByzuk_8OHsZemyHuM-5" value="传输" style="ellipse;shape=cloud;whiteSpace=wrap;html=1;" parent="1" vertex="1">
          <mxGeometry x="607" y="92" width="120" height="80" as="geometry" />
        </mxCell>
        <mxCell id="7eaByzuk_8OHsZemyHuM-10" value="" style="edgeStyle=orthogonalEdgeStyle;rounded=0;orthogonalLoop=1;jettySize=auto;html=1;" parent="1" source="7eaByzuk_8OHsZemyHuM-7" target="7eaByzuk_8OHsZemyHuM-9" edge="1">
          <mxGeometry relative="1" as="geometry" />
        </mxCell>
        <mxCell id="7eaByzuk_8OHsZemyHuM-7" value="预处理" style="shape=cylinder;whiteSpace=wrap;html=1;boundedLbl=1;backgroundOutline=1;" parent="1" vertex="1">
          <mxGeometry x="837" y="92" width="60" height="80" as="geometry" />
        </mxCell>
        <mxCell id="7eaByzuk_8OHsZemyHuM-12" value="" style="edgeStyle=orthogonalEdgeStyle;rounded=0;orthogonalLoop=1;jettySize=auto;html=1;" parent="1" source="7eaByzuk_8OHsZemyHuM-9" target="7eaByzuk_8OHsZemyHuM-11" edge="1">
          <mxGeometry relative="1" as="geometry" />
        </mxCell>
        <mxCell id="7eaByzuk_8OHsZemyHuM-9" value="EDA" style="shape=tape;whiteSpace=wrap;html=1;" parent="1" vertex="1">
          <mxGeometry x="807" y="242" width="120" height="100" as="geometry" />
        </mxCell>
        <mxCell id="7eaByzuk_8OHsZemyHuM-14" value="" style="edgeStyle=orthogonalEdgeStyle;rounded=0;orthogonalLoop=1;jettySize=auto;html=1;" parent="1" source="7eaByzuk_8OHsZemyHuM-11" target="7eaByzuk_8OHsZemyHuM-13" edge="1">
          <mxGeometry relative="1" as="geometry" />
        </mxCell>
        <mxCell id="7eaByzuk_8OHsZemyHuM-11" value="特征选择" style="shape=note;whiteSpace=wrap;html=1;backgroundOutline=1;darkOpacity=0.05;" parent="1" vertex="1">
          <mxGeometry x="827" y="422" width="80" height="100" as="geometry" />
        </mxCell>
        <mxCell id="7eaByzuk_8OHsZemyHuM-16" value="" style="edgeStyle=orthogonalEdgeStyle;rounded=0;orthogonalLoop=1;jettySize=auto;html=1;" parent="1" source="7eaByzuk_8OHsZemyHuM-13" target="7eaByzuk_8OHsZemyHuM-15" edge="1">
          <mxGeometry relative="1" as="geometry" />
        </mxCell>
        <mxCell id="7eaByzuk_8OHsZemyHuM-13" value="特征对比" style="shape=cube;whiteSpace=wrap;html=1;boundedLbl=1;backgroundOutline=1;darkOpacity=0.05;darkOpacity2=0.1;" parent="1" vertex="1">
          <mxGeometry x="807" y="612" width="120" height="80" as="geometry" />
        </mxCell>
        <mxCell id="7eaByzuk_8OHsZemyHuM-18" value="" style="edgeStyle=orthogonalEdgeStyle;rounded=0;orthogonalLoop=1;jettySize=auto;html=1;" parent="1" source="7eaByzuk_8OHsZemyHuM-15" target="7eaByzuk_8OHsZemyHuM-17" edge="1">
          <mxGeometry relative="1" as="geometry" />
        </mxCell>
        <mxCell id="7eaByzuk_8OHsZemyHuM-15" value="特征量化" style="shape=hexagon;perimeter=hexagonPerimeter2;whiteSpace=wrap;html=1;fixedSize=1;" parent="1" vertex="1">
          <mxGeometry x="607" y="612" width="120" height="80" as="geometry" />
        </mxCell>
        <mxCell id="7eaByzuk_8OHsZemyHuM-20" value="" style="edgeStyle=orthogonalEdgeStyle;rounded=0;orthogonalLoop=1;jettySize=auto;html=1;" parent="1" source="7eaByzuk_8OHsZemyHuM-17" target="7eaByzuk_8OHsZemyHuM-19" edge="1">
          <mxGeometry relative="1" as="geometry" />
        </mxCell>
        <mxCell id="7eaByzuk_8OHsZemyHuM-17" value="特征工程" style="shape=process;whiteSpace=wrap;html=1;backgroundOutline=1;" parent="1" vertex="1">
          <mxGeometry x="407" y="622" width="120" height="60" as="geometry" />
        </mxCell>
        <mxCell id="7eaByzuk_8OHsZemyHuM-22" value="" style="edgeStyle=orthogonalEdgeStyle;rounded=0;orthogonalLoop=1;jettySize=auto;html=1;" parent="1" source="7eaByzuk_8OHsZemyHuM-19" target="7eaByzuk_8OHsZemyHuM-21" edge="1">
          <mxGeometry relative="1" as="geometry" />
        </mxCell>
        <mxCell id="7eaByzuk_8OHsZemyHuM-19" value="模型筛选" style="rhombus;whiteSpace=wrap;html=1;" parent="1" vertex="1">
          <mxGeometry x="227" y="612" width="80" height="80" as="geometry" />
        </mxCell>
        <mxCell id="7eaByzuk_8OHsZemyHuM-24" value="" style="edgeStyle=orthogonalEdgeStyle;rounded=0;orthogonalLoop=1;jettySize=auto;html=1;" parent="1" source="7eaByzuk_8OHsZemyHuM-21" target="7eaByzuk_8OHsZemyHuM-23" edge="1">
          <mxGeometry relative="1" as="geometry" />
        </mxCell>
        <mxCell id="7eaByzuk_8OHsZemyHuM-21" value="模型训练" style="shape=note;whiteSpace=wrap;html=1;backgroundOutline=1;darkOpacity=0.05;" parent="1" vertex="1">
          <mxGeometry x="227" y="442" width="80" height="100" as="geometry" />
        </mxCell>
        <mxCell id="7eaByzuk_8OHsZemyHuM-26" value="" style="edgeStyle=orthogonalEdgeStyle;rounded=0;orthogonalLoop=1;jettySize=auto;html=1;" parent="1" source="7eaByzuk_8OHsZemyHuM-23" target="7eaByzuk_8OHsZemyHuM-25" edge="1">
          <mxGeometry relative="1" as="geometry" />
        </mxCell>
        <mxCell id="7eaByzuk_8OHsZemyHuM-23" value="模型迭代优化" style="shape=trapezoid;perimeter=trapezoidPerimeter;whiteSpace=wrap;html=1;fixedSize=1;" parent="1" vertex="1">
          <mxGeometry x="207" y="282" width="120" height="60" as="geometry" />
        </mxCell>
        <mxCell id="7eaByzuk_8OHsZemyHuM-28" value="" style="edgeStyle=orthogonalEdgeStyle;rounded=0;orthogonalLoop=1;jettySize=auto;html=1;" parent="1" source="7eaByzuk_8OHsZemyHuM-25" target="7eaByzuk_8OHsZemyHuM-27" edge="1">
          <mxGeometry relative="1" as="geometry" />
        </mxCell>
        <mxCell id="7eaByzuk_8OHsZemyHuM-25" value="模型压缩" style="shape=cube;whiteSpace=wrap;html=1;boundedLbl=1;backgroundOutline=1;darkOpacity=0.05;darkOpacity2=0.1;" parent="1" vertex="1">
          <mxGeometry x="407" y="272" width="120" height="80" as="geometry" />
        </mxCell>
        <mxCell id="7eaByzuk_8OHsZemyHuM-30" value="" style="edgeStyle=orthogonalEdgeStyle;rounded=0;orthogonalLoop=1;jettySize=auto;html=1;" parent="1" source="7eaByzuk_8OHsZemyHuM-27" target="7eaByzuk_8OHsZemyHuM-29" edge="1">
          <mxGeometry relative="1" as="geometry" />
        </mxCell>
        <mxCell id="7eaByzuk_8OHsZemyHuM-27" value="模型测试" style="shape=hexagon;perimeter=hexagonPerimeter2;whiteSpace=wrap;html=1;fixedSize=1;" parent="1" vertex="1">
          <mxGeometry x="607" y="272" width="120" height="80" as="geometry" />
        </mxCell>
        <mxCell id="7eaByzuk_8OHsZemyHuM-32" value="" style="edgeStyle=orthogonalEdgeStyle;rounded=0;orthogonalLoop=1;jettySize=auto;html=1;" parent="1" source="7eaByzuk_8OHsZemyHuM-29" target="7eaByzuk_8OHsZemyHuM-31" edge="1">
          <mxGeometry relative="1" as="geometry" />
        </mxCell>
        <mxCell id="7eaByzuk_8OHsZemyHuM-29" value="模型部署" style="shape=cube;whiteSpace=wrap;html=1;boundedLbl=1;backgroundOutline=1;darkOpacity=0.05;darkOpacity2=0.1;" parent="1" vertex="1">
          <mxGeometry x="607" y="432" width="120" height="80" as="geometry" />
        </mxCell>
        <mxCell id="7eaByzuk_8OHsZemyHuM-31" value="融合" style="shape=cylinder;whiteSpace=wrap;html=1;boundedLbl=1;backgroundOutline=1;" parent="1" vertex="1">
          <mxGeometry x="437" y="432" width="60" height="80" as="geometry" />
        </mxCell>
        <mxCell id="sOHC7XDGmh5xb4F102gi-14" value="" style="endArrow=classic;html=1;" edge="1" parent="1">
          <mxGeometry relative="1" as="geometry">
            <mxPoint x="507" y="471.29" as="sourcePoint" />
            <mxPoint x="607" y="471.29" as="targetPoint" />
          </mxGeometry>
        </mxCell>
        <mxCell id="sOHC7XDGmh5xb4F102gi-15" value="Label" style="edgeLabel;resizable=0;html=1;align=center;verticalAlign=middle;" connectable="0" vertex="1" parent="sOHC7XDGmh5xb4F102gi-14">
          <mxGeometry relative="1" as="geometry" />
        </mxCell>
      </root>
    </mxGraphModel>
  </diagram>
  <diagram id="0GVnMFrJSglKkFaA1sNL" name="Page-2">
    <mxGraphModel dx="1351" dy="923" grid="1" gridSize="1" guides="1" tooltips="1" connect="1" arrows="1" fold="1" page="1" pageScale="1" pageWidth="1169" pageHeight="827" background="#EEEEEE" math="0" shadow="0">
      <root>
        <mxCell id="8oKfnslXlt-IKLZ0Cfsu-0" />
        <mxCell id="8oKfnslXlt-IKLZ0Cfsu-1" parent="8oKfnslXlt-IKLZ0Cfsu-0" />
        <mxCell id="8oKfnslXlt-IKLZ0Cfsu-27" value="Task" style="shape=ext;rounded=1;html=1;whiteSpace=wrap;sketch=0;strokeColor=#909090;fillColor=#F5AB50;fontColor=#1A1A1A;" vertex="1" parent="8oKfnslXlt-IKLZ0Cfsu-1">
          <mxGeometry x="89" y="71" width="120" height="80" as="geometry" />
        </mxCell>
      </root>
    </mxGraphModel>
  </diagram>
</mxfile>
